<?xml version="1.0" encoding="utf-8"?>
<!-- Generator: Adobe Illustrator 25.2.3, SVG Export Plug-In . SVG Version: 6.00 Build 0)  -->
<svg version="1.1" id="Layer_1" xmlns="http://www.w3.org/2000/svg" xmlns:xlink="http://www.w3.org/1999/xlink" x="0px" y="0px"
	 viewBox="0 0 3141.12 1256.98" style="enable-background:new 0 0 3141.12 1256.98;" xml:space="preserve">
<style type="text/css">
	.st0{fill:#E91F63;}
	.st1{fill:#FFFFFF;}
</style>
<g>
	<path class="st0" d="M553.85,560.06c-45.3,14.72-70.09,63.37-55.37,108.68c14.72,45.3,63.37,70.09,108.67,55.37
		c45.3-14.72,70.09-63.37,55.37-108.67C647.81,570.13,599.15,545.34,553.85,560.06z"/>
	<path class="st0" d="M596.4,424.62l-36.18,71l87-28.27C639.58,443.82,619.34,427.9,596.4,424.62z"/>
	<path class="st0" d="M770.48,491.44l-100.76,32.74l96.2,49.02C775.57,558.98,789.1,526.8,770.48,491.44z"/>
	<path class="st0" d="M726.97,621.8l50.89,156.62c42.57-13.83,73.09-47.59,84.59-87.59L726.97,621.8z"/>
	<path class="st0" d="M693.74,740.48l-10.91,21.41l0,0l-87.27,171.29c35.28,15.4,76.11,18.45,115.6,5.62
		c17.29-5.62,33-13.85,46.84-24.12l-59.58-183.37L693.74,740.48z"/>
	<path class="st0" d="M568.14,799.15L568.14,799.15l-240.41,78.11c0,0,0,0,0,0c23.99,73.85,87.56,123.78,159.59,133.96
		l113.46-222.68L568.14,799.15z"/>
	<path class="st0" d="M460.7,744.41L460.7,744.41L195.18,609.12c-23.3,50.68-28.36,109.91-9.76,167.14
		c8.58,26.41,21.49,50.21,37.68,70.87l268.18-87.14L460.7,744.41z"/>
	<path class="st0" d="M423.44,629.72L320.69,313.51C229.84,348.33,168.5,428.9,154.61,519.99l279.43,142.38L423.44,629.72z"/>
	<path class="st0" d="M478.18,522.28l165.9-325.6c-69.42-38.29-153.91-48.88-235.26-22.45c-21.53,7-41.7,16.22-60.37,27.33
		l114.14,351.3L478.18,522.28z"/>
</g>
<g>
	<path class="st1" d="M1111.14,740.11c9.54,6.85,22.86,10.27,39.98,10.27c8.31,0,16.75-0.97,25.31-2.93
		c8.55-1.95,16.25-4.4,23.11-7.34c3.91,3.92,7.21,8.69,9.9,14.3c2.68,5.63,4.04,12.1,4.04,19.44c0,14.67-6.6,26.78-19.81,36.31
		c-13.2,9.54-34.48,14.31-63.82,14.31c-38.64,0-69.08-8.69-91.33-26.04c-22.26-17.35-33.38-46.09-33.38-86.2V375.52
		c3.91-0.97,9.65-2.2,17.24-3.67c7.58-1.47,15.77-2.2,24.58-2.2c17.11,0,29.71,3.19,37.78,9.54c8.07,6.36,12.1,17.61,12.1,33.74
		v60.89h107.84c2.44,3.92,4.64,9.05,6.6,15.41c1.95,6.36,2.93,13.2,2.93,20.54c0,12.72-2.93,22.01-8.8,27.88
		c-5.87,5.87-13.7,8.8-23.47,8.8h-85.1v159.92C1096.84,722.02,1101.61,733.27,1111.14,740.11z"/>
	<path class="st1" d="M1603.75,640.35c0,28.37-4.29,53.92-12.84,76.66c-8.56,22.74-20.67,42.18-36.31,58.32
		c-15.66,16.14-34.48,28.5-56.49,37.05c-22.01,8.55-46.71,12.84-74.09,12.84c-27.39,0-52.08-4.29-74.09-12.84
		c-22.01-8.55-40.84-20.78-56.49-36.68c-15.66-15.89-27.76-35.21-36.31-57.95c-8.56-22.74-12.84-48.53-12.84-77.39
		c0-28.36,4.28-53.92,12.84-76.66c8.55-22.74,20.78-42.05,36.68-57.95c15.89-15.89,34.84-28.12,56.85-36.68
		c22.01-8.55,46.46-12.84,73.36-12.84c26.89,0,51.35,4.29,73.36,12.84c22.01,8.56,40.95,20.91,56.85,37.05
		c15.89,16.14,28.12,35.58,36.68,58.32C1599.46,587.16,1603.75,612.47,1603.75,640.35z M1424.02,529.57
		c-26.41,0-47.2,9.66-62.35,28.98c-15.16,19.33-22.74,46.58-22.74,81.79c0,35.71,7.45,63.09,22.38,82.16
		c14.91,19.07,35.82,28.61,62.72,28.61c26.89,0,47.8-9.65,62.72-28.98c14.91-19.31,22.38-46.58,22.38-81.79s-7.59-62.47-22.74-81.79
		C1471.21,539.24,1450.43,529.57,1424.02,529.57z"/>
	<path class="st1" d="M1840.69,530.31c-14.67,0-28.24,2.45-40.71,7.34c-12.47,4.89-23.23,11.99-32.28,21.27
		c-9.05,9.3-16.26,20.79-21.64,34.48c-5.39,13.7-8.07,29.6-8.07,47.68c0,36.2,9.54,63.46,28.61,81.79
		c19.07,18.34,43.76,27.51,74.09,27.51c17.11,0,31.91-2.32,44.38-6.97c12.47-4.64,23.59-9.65,33.38-15.04
		c6.84,4.89,12.34,10.52,16.51,16.87c4.15,6.36,6.24,13.7,6.24,22.01c0,16.63-9.79,30.33-29.34,41.08
		c-19.57,10.75-45.97,16.14-79.23,16.14c-27.88,0-53.44-3.79-76.66-11.37c-23.23-7.58-43.17-19.07-59.79-34.48
		c-16.63-15.4-29.47-34.59-38.51-57.59c-9.05-22.98-13.57-49.63-13.57-79.96c0-30.81,4.88-57.83,14.67-81.06
		c9.78-23.22,23.11-42.55,39.98-57.95s36.55-26.89,59.05-34.48c22.49-7.58,46.46-11.37,71.89-11.37c32.76,0,58.93,5.75,78.49,17.24
		c19.55,11.5,29.34,25.56,29.34,42.18c0,7.83-2.09,14.92-6.24,21.27c-4.16,6.36-8.93,11.5-14.3,15.41
		c-9.79-5.38-20.67-10.38-32.64-15.04C1872.35,532.64,1857.8,530.31,1840.69,530.31z"/>
	<path class="st1" d="M2133.38,456.22c47.92,0,86.2,10.27,114.8,30.81c28.61,20.54,42.92,52.34,42.92,95.37v169.46
		c0,11.74-2.93,21.03-8.8,27.88c-5.87,6.85-13.21,12.96-22.01,18.34c-13.7,8.32-31.06,14.92-52.08,19.81
		c-21.03,4.88-45,7.34-71.89,7.34c-48.91,0-87.42-9.42-115.54-28.24c-28.13-18.82-42.18-47.06-42.18-84.73
		c0-32.76,10.38-57.83,31.18-75.19c20.78-17.35,50.98-27.99,90.6-31.91l100.5-10.27v-13.2c0-18.58-6.73-32.28-20.17-41.08
		c-13.46-8.8-32.4-13.21-56.85-13.21c-19.07,0-37.66,2.33-55.75,6.97c-18.1,4.65-34.24,10.4-48.42,17.24
		c-5.39-3.91-9.9-9.17-13.57-15.77s-5.5-13.81-5.5-21.64c0-9.78,2.32-17.72,6.97-23.84c4.64-6.11,12.1-11.61,22.38-16.5
		c14.18-5.87,30.32-10.27,48.42-13.21C2096.45,457.68,2114.79,456.22,2133.38,456.22z M2136.32,754.78
		c14.18,0,27.14-1.34,38.88-4.04c11.74-2.68,20.29-5.98,25.68-9.9v-81.43l-71.16,6.6c-19.57,1.96-34.48,6.24-44.75,12.84
		c-10.27,6.6-15.41,17-15.41,31.18c0,14.19,5.25,25.19,15.77,33.01C2095.84,750.88,2112.84,754.78,2136.32,754.78z"/>
	<path class="st1" d="M2329.24,783.39c0-11.74,3.54-21.51,10.64-29.34c7.08-7.82,16.99-11.74,29.71-11.74
		c12.71,0,22.49,3.92,29.34,11.74c6.84,7.83,10.27,17.61,10.27,29.34c0,11.26-3.43,20.79-10.27,28.61
		c-6.85,7.82-16.63,11.74-29.34,11.74c-12.72,0-22.63-3.92-29.71-11.74C2332.78,804.19,2329.24,794.65,2329.24,783.39z"/>
	<path class="st1" d="M2452.47,368.19c0-10.27,3.54-18.95,10.64-26.04c7.08-7.08,16.25-10.64,27.51-10.64
		c11.25,0,20.29,3.55,27.14,10.64c6.84,7.09,10.27,15.77,10.27,26.04c0,10.27-3.43,18.96-10.27,26.04
		c-6.85,7.09-15.9,10.64-27.14,10.64c-11.26,0-20.43-3.54-27.51-10.64C2456.02,387.14,2452.47,378.46,2452.47,368.19z
		 M2519.96,812.74c-2.45,0.99-6.12,2.07-11,3.3c-4.89,1.21-10.27,1.83-16.14,1.83c-21.03,0-31.54-8.8-31.54-26.41V476.76
		c2.44-0.97,6.24-2.07,11.37-3.3c5.14-1.21,10.64-1.83,16.51-1.83c20.54,0,30.81,9.06,30.81,27.14V812.74z"/>
	<path class="st1" d="M2930.77,644.75c0,27.39-3.92,52.08-11.74,74.09c-7.83,22.01-18.96,40.84-33.38,56.49
		c-14.43,15.66-31.91,27.64-52.45,35.95c-20.54,8.31-43.53,12.47-68.96,12.47c-25.43,0-48.42-4.16-68.96-12.47
		c-20.54-8.31-38.15-20.29-52.82-35.95c-14.67-15.65-25.93-34.48-33.75-56.49c-7.83-22.01-11.74-46.7-11.74-74.09
		c0-27.38,4.04-52.08,12.1-74.09c8.07-22.01,19.44-40.83,34.11-56.49c14.67-15.65,32.28-27.62,52.82-35.95
		c20.54-8.31,43.28-12.47,68.22-12.47c24.94,0,47.68,4.16,68.22,12.47c20.54,8.32,38.02,20.3,52.45,35.95
		c14.42,15.66,25.67,34.48,33.74,56.49C2926.73,592.66,2930.77,617.36,2930.77,644.75z M2764.25,514.17
		c-33.26,0-59.42,11.5-78.49,34.48c-19.07,22.99-28.61,55.02-28.61,96.1c0,41.57,9.41,73.72,28.24,96.47
		c18.82,22.74,45.12,34.11,78.86,34.11c33.74,0,59.9-11.49,78.49-34.48c18.58-22.98,27.88-55.02,27.88-96.1s-9.42-73.11-28.24-96.1
		C2823.54,525.67,2797.5,514.17,2764.25,514.17z"/>
</g>
<g>
</g>
<g>
</g>
<g>
</g>
<g>
</g>
<g>
</g>
<g>
</g>
</svg>
