<?xml version="1.0" encoding="utf-8"?>
<!-- Generator: Adobe Illustrator 25.2.1, SVG Export Plug-In . SVG Version: 6.00 Build 0)  -->
<svg version="1.1" id="Layer_1" xmlns="http://www.w3.org/2000/svg" xmlns:xlink="http://www.w3.org/1999/xlink" x="0px" y="0px"
	 viewBox="0 0 3141.12 1256.98" style="enable-background:new 0 0 3141.12 1256.98;" xml:space="preserve">
<style type="text/css">
	.st0{fill:#E91F63;}
	.st1{fill:#575756;}
	.st2{font-family:'BalooChettan2-SemiBold';}
	.st3{font-size:733.5802px;}
	.st4{letter-spacing:-18;}
	.st5{font-family:'BalooChettan2-Regular';}
</style>
<g>
	<path class="st0" d="M553.85,560.06c-45.3,14.72-70.09,63.37-55.37,108.68c14.72,45.3,63.37,70.09,108.67,55.37
		c45.3-14.72,70.09-63.37,55.37-108.67C647.81,570.13,599.15,545.34,553.85,560.06z"/>
	<path class="st0" d="M596.4,424.62l-36.18,71l87-28.27C639.58,443.82,619.34,427.9,596.4,424.62z"/>
	<path class="st0" d="M770.48,491.44l-100.76,32.74l96.2,49.02C775.57,558.98,789.1,526.8,770.48,491.44z"/>
	<path class="st0" d="M726.97,621.8l50.89,156.62c42.57-13.83,73.09-47.59,84.59-87.59L726.97,621.8z"/>
	<path class="st0" d="M693.74,740.48l-10.91,21.41l0,0l-87.27,171.29c35.28,15.4,76.11,18.45,115.6,5.62
		c17.29-5.62,33-13.85,46.84-24.12l-59.58-183.37L693.74,740.48z"/>
	<path class="st0" d="M568.14,799.15L568.14,799.15l-240.41,78.11c0,0,0,0,0,0c23.99,73.85,87.56,123.78,159.59,133.96
		l113.46-222.68L568.14,799.15z"/>
	<path class="st0" d="M460.7,744.41L460.7,744.41L195.18,609.12c-23.3,50.68-28.36,109.91-9.76,167.14
		c8.58,26.41,21.49,50.21,37.68,70.87l268.18-87.14L460.7,744.41z"/>
	<path class="st0" d="M423.44,629.72L320.69,313.51C229.84,348.33,168.5,428.9,154.61,519.99l279.43,142.38L423.44,629.72z"/>
	<path class="st0" d="M478.18,522.28l165.9-325.6c-69.42-38.29-153.91-48.88-235.26-22.45c-21.53,7-41.7,16.22-60.37,27.33
		l114.14,351.3L478.18,522.28z"/>
</g>
<text transform="matrix(1 0 0 1 957.4594 814.2034)"><tspan x="0" y="0" class="st1 st2 st3 st4">toca</tspan><tspan x="1365.17" y="0" class="st1 st5 st3 st4">.io</tspan></text>
</svg>
