<?xml version="1.0" encoding="utf-8"?>
<!-- Generator: Adobe Illustrator 24.2.3, SVG Export Plug-In . SVG Version: 6.00 Build 0)  -->
<svg version="1.1" id="Layer_1" xmlns="http://www.w3.org/2000/svg" xmlns:xlink="http://www.w3.org/1999/xlink" x="0px" y="0px"
	 viewBox="0 0 1000 1000" style="enable-background:new 0 0 1000 1000;" xml:space="preserve">
<style type="text/css">
	.st0{fill:#E91F63;}
</style>
<g>
	<path class="st0" d="M553.221,470.2149c-53.1936,17.2841-82.3038,74.4171-65.0208,127.6118
		c17.2841,53.1924,74.4171,82.3027,127.6107,65.0186c53.1936-17.2819,82.3049-74.4148,65.0208-127.6095
		S606.4146,452.9308,553.221,470.2149z"/>
	<path class="st0" d="M603.1801,311.1744l-42.4815,83.372L662.86,361.3525C653.8821,333.7201,630.1216,315.0323,603.1801,311.1744z"
		/>
	<path class="st0" d="M807.5994,389.6346l-118.3138,38.4436l112.9666,57.5598
		C813.5729,468.9513,829.4559,431.1566,807.5994,389.6346z"/>
	<path class="st0" d="M756.4991,542.7132l59.7553,183.9092c49.9819-16.2399,85.8218-55.8784,99.3333-102.8483L756.4991,542.7132z"/>
	<path class="st0" d="M602.1865,908.3452c33.3265,14.5428,114.2227,35.0576,190.7428-21.725l-69.9611-215.319
		C722.9683,671.3011,707.131,702.3798,602.1865,908.3452z"/>
	<path class="st0" d="M287.7042,842.6915c0,0.002,0,0.002,0,0.002C315.8797,929.4084,390.5162,988.0363,475.098,1000
		l133.2333-261.4863C608.3313,738.5137,533.4109,762.8565,287.7042,842.6915z"/>
	<path class="st0" d="M132.049,527.8209c-59.0817,128.4953-0.3944,237.1638,32.7816,279.4822l314.9148-102.3212
		C479.7453,704.9819,421.8327,675.4727,132.049,527.8209z"/>
	<path class="st0" d="M279.4323,180.7078c-106.687,40.8835-178.7107,135.493-195.0201,242.4546l328.1206,167.1844
		C412.5328,590.3469,404.0116,564.1224,279.4323,180.7078z"/>
	<path class="st0" d="M659.1721,43.5131C541.2229-21.5445,409.5595-8.7958,312.0319,49.2536l134.0318,412.5073
		C446.0637,461.7609,457.5931,439.1328,659.1721,43.5131z"/>
</g>
</svg>
